<svg width="331" height="101" viewBox="0 0 331 101" fill="none" xmlns="http://www.w3.org/2000/svg">
<path d="M5.36203 71.1352C4.33887 71.1297 3.34853 70.8349 2.48951 70.2888C0.930148 69.2951 0 67.6024 0 65.7569L0.0164144 21.1035L48.6522 21.1144L48.696 55.3061C48.696 56.7421 48.1379 58.0963 47.1147 59.1119C46.0971 60.1274 44.7401 60.6898 43.3011 60.6898H43.2683C40.3082 60.6735 37.9063 58.2655 37.9063 55.3061L37.8625 31.871H10.8007L10.7842 65.7514C10.7842 68.7218 8.36586 71.1352 5.38939 71.1297H5.36203V71.1352Z" fill="#1226AA"/>
<path d="M24.1455 15.911C28.5483 15.911 32.1174 12.3492 32.1174 7.95549C32.1174 3.56179 28.5483 0 24.1455 0C19.7427 0 16.1736 3.56179 16.1736 7.95549C16.1736 12.3492 19.7427 15.911 24.1455 15.911Z" fill="#1226AA"/>
<path d="M62.3144 29.8672C63.3376 29.8727 64.3279 30.1675 65.1869 30.7135C66.7463 31.7073 67.6765 33.4054 67.6765 35.251L67.6601 79.8989L19.0242 79.888L18.9805 45.6963C18.9805 44.2603 19.5386 42.9061 20.5617 41.8905C21.5794 40.875 22.9363 40.3126 24.3753 40.3126H24.4082C27.3682 40.3289 29.7702 42.7369 29.7702 45.6963L29.814 69.1314H56.8813L56.8977 35.251C56.8977 32.2806 59.3161 29.8672 62.2925 29.8727H62.3199L62.3144 29.8672Z" fill="#F16752"/>
<path d="M43.5144 100.964C47.8961 100.964 51.4481 97.4195 51.4481 93.0469C51.4481 88.6743 47.8961 85.1296 43.5144 85.1296C39.1328 85.1296 35.5808 88.6743 35.5808 93.0469C35.5808 97.4195 39.1328 100.964 43.5144 100.964Z" fill="#F16752"/>
<path d="M149.792 59.8435C149.792 46.264 158.081 39.3733 167.886 39.3733C174.102 39.3733 179.628 42.4037 181.91 47.8529V43.5776C181.91 41.3717 183.152 40.1322 185.362 40.1322H186.188C188.399 40.1322 189.641 41.3717 189.641 43.5776V76.0439C189.641 78.2498 188.399 79.4893 186.188 79.4893H185.362C183.152 79.4893 181.91 78.2498 181.91 76.0439V72.047C179.699 77.3543 174.107 80.4557 167.957 80.4557C158.153 80.4557 149.792 73.494 149.792 59.849V59.8435ZM182.118 59.8435C182.118 51.2273 177.078 45.92 169.752 45.92C162.426 45.92 157.529 51.1564 157.529 59.8435C157.529 68.5307 162.502 73.838 169.894 73.838C177.286 73.838 182.118 68.5307 182.118 59.8435Z" fill="#1226AA"/>
<path d="M233.703 40.1323C235.913 40.1323 237.155 41.3717 237.155 43.5776V72.735C237.155 87.483 230.179 93.8277 217.124 93.8277C209.524 93.8277 203.516 91.1413 200.135 86.2435C198.685 84.2451 199.654 82.4541 201.93 81.9027L202.69 81.6952C204.622 81.2147 205.869 81.9027 207.177 83.4861C209.458 86.107 212.977 87.6905 217.19 87.6905C224.992 87.6905 229.413 83.8301 229.413 73.9745V70.5291C227.202 75.6999 221.611 78.6648 215.461 78.6648C205.585 78.6648 197.295 72.118 197.295 59.019C197.295 45.92 205.585 39.4443 215.39 39.4443C221.611 39.4443 227.202 42.4091 229.407 47.6509V43.5831C229.407 41.3772 230.649 40.1377 232.86 40.1377H233.692L233.703 40.1323ZM229.561 59.019C229.561 50.5394 224.658 45.374 217.266 45.374C209.874 45.374 205.043 50.5448 205.043 59.019C205.043 67.4932 209.945 72.735 217.337 72.735C224.729 72.735 229.561 67.5642 229.561 59.019Z" fill="#1226AA"/>
<path d="M266.849 39.4443C277.759 39.4443 282.803 45.718 282.803 58.1945V76.1149C282.803 78.3208 281.561 79.5602 279.351 79.5602H278.525C276.314 79.5602 275.072 78.3208 275.072 76.1149V58.817C275.072 50.2008 271.757 46.133 264.436 46.133C257.115 46.133 253.936 51.0253 253.936 59.7125V76.1149C253.936 78.3208 252.694 79.5602 250.483 79.5602H249.652C247.441 79.5602 246.199 78.3208 246.199 76.1149V43.5831C246.199 41.3772 247.441 40.1377 249.652 40.1377H250.483C252.694 40.1377 253.936 41.3772 253.936 43.5831V47.5035C255.731 42.9333 260.217 39.4497 266.849 39.4497V39.4443Z" fill="#1226AA"/>
<path d="M291.492 76.1094V43.5776C291.492 41.3717 292.712 40.1323 294.884 40.1323H295.765C297.932 40.1323 299.158 41.3717 299.158 43.5776V76.1094C299.158 78.3153 297.937 79.5548 295.765 79.5548H294.884C292.718 79.5548 291.492 78.3153 291.492 76.1094Z" fill="#1226AA"/>
<path d="M325.908 80.1117C315.753 80.1117 311.129 75.9074 311.129 63.8458V46.133H308.848C306.637 46.133 305.395 45.03 305.395 43.1026C305.395 41.1751 306.429 40.1377 308.295 40.1377H311.129V36.0044C311.129 33.9349 312.163 32.6955 314.166 32.2805L315.134 32.073C317.553 31.5215 318.931 32.6955 318.931 35.1034V40.1323H327.15C329.36 40.1323 330.602 41.1642 330.602 43.0971C330.602 45.03 329.36 46.1275 327.15 46.1275H318.931V62.9449C318.931 71.0806 321.071 73.9035 327.084 73.9035C329.223 73.9035 330.618 74.657 330.81 76.5244C331.029 78.6265 330.104 79.8333 327.91 80.0407C327.221 80.1008 326.526 80.1063 325.908 80.1063V80.1117Z" fill="#1226AA"/>
<path d="M142.597 76.1641L141.88 32.783C141.497 30.6316 140.469 29.6597 138.171 29.6597H134.817C132.595 29.6597 131.135 30.6316 130.445 32.5045L115.732 67.8373L100.992 32.5045C100.303 30.6316 98.8473 29.6597 96.6205 29.6597H93.644C91.346 29.6597 89.8851 30.6316 89.5021 32.783L88.7853 76.1641C88.7142 78.6431 89.6279 79.9153 92.2378 79.9153H93.8847C96.5056 79.959 97.2606 78.3264 97.2606 76.2351L96.6697 40.4873L110.316 73.4067C111.005 75.2796 112.46 76.2515 114.687 76.2515H116.772C118.993 76.2515 120.454 75.2796 121.144 73.4067L134.789 40.4873L134.199 76.2351C134.199 78.3264 134.954 79.9535 137.574 79.9153H139.139C141.744 79.9153 142.663 78.6485 142.592 76.1641H142.597Z" fill="#1226AA"/>
<path d="M295.388 35.3492C297.92 35.3492 299.973 33.3007 299.973 30.7736C299.973 28.2465 297.92 26.198 295.388 26.198C292.855 26.198 290.803 28.2465 290.803 30.7736C290.803 33.3007 292.855 35.3492 295.388 35.3492Z" fill="#F16752"/>
</svg>
